# xmcd
#
# Track frame offsets: 
#        183
#        2235
#        15548
#        22473
#        27488
#        33320
#        48923
#        57355
#        70808
#        82288
#        86970
#        92450
#        98740
#        106538
#        117605
#        134810
#        147655
#        153880
#        161750
#        171055
#        177683
#        185225
#        195333
#        205688
#        212438
#        219325
#        235935
#
# Disc length: 3178 seconds
#
# Revision: 2
# Processed by: cddbd v1.5.2PL0 Copyright (c) Steve Scherf et al.
# Submitted via: ExactAudioCopyFreeDBPlugin 1.0
#
DISCID=870c681b
DTITLE=Various Artist - Alle Jahre wieder (Weihnachtslieder)
DYEAR=2002
DGENRE=Christmas
TTITLE0=Glocken Frauenkirche München
TTITLE1=O du Fröhliche
TTITLE2=Kommet ihr Hirten
TTITLE3=Alle Jahre wieder
TTITLE4=Morgen Kinder wirds was geben
TTITLE5=Der Heiland ist gebohren
TTITLE6=Vom Himmel hoch da komm ich her
TTITLE7=Süßer die Glocken nie klingen
TTITLE8=Es ist ein Ros entsprungen
TTITLE9=Morgen kommt der Weihnachtsmann
TTITLE10=Ihr Kinderlein kommet
TTITLE11=Joseph, lieber Joseph mein
TTITLE12=Leise rieselt der Schnee
TTITLE13=Ave Maria
TTITLE14=O Tannenbaum
TTITLE15=Nun singet und seid froh
TTITLE16=Ehre sei Gott in der Höhe
TTITLE17=Freut euch ihr lieben Christen
TTITLE18=Tochter Zion
TTITLE19=Zu Bethlehem gebohren
TTITLE20=Am Weihnachtsbaume die Lichter brennen
TTITLE21=Lobt Gott ihr Christen
TTITLE22=Heilige Nacht
TTITLE23=Gott ist mein Lied
TTITLE24=Schlafe, schlafe holder Knabe
TTITLE25=Stille Nacht, heilige Nacht
TTITLE26=Glocken Nürnberger Dom
EXTD=Eigner: Daniel
EXTT0=
EXTT1=
EXTT2=
EXTT3=
EXTT4=
EXTT5=
EXTT6=
EXTT7=
EXTT8=
EXTT9=
EXTT10=
EXTT11=
EXTT12=
EXTT13=
EXTT14=
EXTT15=
EXTT16=
EXTT17=
EXTT18=
EXTT19=
EXTT20=
EXTT21=
EXTT22=
EXTT23=
EXTT24=
EXTT25=
EXTT26=
PLAYORDER=
